<svg xmlns="http://www.w3.org/2000/svg" aria-hidden="true" style="position:absolute;width:0;height:0;overflow:hidden">
  <defs>
    <symbol id="icon-close" viewBox="0 0 32 32">
      <path fill="#0b6286" d="m8.533 25.333-1.867-1.867 7.467-7.467-7.467-7.467 1.867-1.867L16 14.132l7.467-7.467 1.867 1.867-7.467 7.467 7.467 7.467-1.867 1.867L16 17.866l-7.467 7.467z" style="fill:var(--color1, #0b6286)"/>
    </symbol>
    <symbol id="icon-lotus" viewBox="0 0 32 32">
      <path fill="#f4b6a8" d="M30.513 15.329a1.682 1.682 0 0 0-1.037-.8 9.068 9.068 0 0 0-3.021-.25c.584-2.579.202-4.614-.181-5.8a1.768 1.768 0 0 0-2.06-1.191 10.516 10.516 0 0 0-3.72 1.639 11.583 11.583 0 0 0-3.44-4.325 1.746 1.746 0 0 0-2.106 0 11.59 11.59 0 0 0-3.439 4.325 10.52 10.52 0 0 0-3.721-1.639A1.771 1.771 0 0 0 5.729 8.48c-.384 1.186-.765 3.221-.181 5.8a9.068 9.068 0 0 0-3.021.25 1.689 1.689 0 0 0-1.037.8 1.747 1.747 0 0 0-.175 1.343c.414 1.535 1.688 4.453 5.553 6.766s7.296 2.311 9.135 2.311c1.839 0 5.265 0 9.133-2.311s5.139-5.231 5.552-6.768a1.76 1.76 0 0 0-.172-1.343zm-9.453-4.966a9.139 9.139 0 0 1 3.468-1.613.279.279 0 0 1 .318.188c.492 1.527.976 4.688-1.324 8.688a16.212 16.212 0 0 1-3.5 4.171c.96-1.671 1.729-3.93 1.729-6.9a14.502 14.502 0 0 0-.69-4.534zM7.155 8.941a.274.274 0 0 1 .318-.191 9.12 9.12 0 0 1 3.467 1.613 14.498 14.498 0 0 0-.69 4.534c0 2.97.769 5.231 1.726 6.896a16.192 16.192 0 0 1-3.5-4.171c-2.297-3.996-1.814-7.156-1.321-8.68zm.48 13.209c-3.412-2.039-4.519-4.552-4.875-5.875a.257.257 0 0 1 .027-.201.215.215 0 0 1 .125-.1 7.786 7.786 0 0 1 3.089-.134c.317.878.711 1.727 1.179 2.535a17.614 17.614 0 0 0 5.125 5.59 14.36 14.36 0 0 1-4.669-1.815zM16 24.108c-1.085-.775-4.25-3.525-4.25-9.211 0-5.42 2.867-8.168 4.1-9.098a.253.253 0 0 1 .3 0c1.232.93 4.1 3.678 4.1 9.098 0 5.721-3.149 8.438-4.25 9.211zm13.238-7.828c-.356 1.318-1.462 3.831-4.875 5.875a14.35 14.35 0 0 1-4.672 1.809 17.614 17.614 0 0 0 5.125-5.59 15.79 15.79 0 0 0 1.185-2.534 7.778 7.778 0 0 1 3.091.139.215.215 0 0 1 .125.1.263.263 0 0 1 .023.201h-.003z" style="fill:var(--color2, #f4b6a8)"/>
    </symbol>
    <symbol id="icon-menu" viewBox="0 0 32 32">
      <path d="M4 24v-2h24v2H4zm0-7v-2h24v2H4zm0-7V8h24v2H4z"/>
    </symbol>
    <symbol id="icon-minus" viewBox="0 0 32 32">
      <path stroke-linecap="round" stroke-linejoin="round" stroke-width="2" d="M8 16h16"/>
    </symbol>
    <symbol id="icon-plus" viewBox="0 0 32 32">
      <path stroke-linecap="round" stroke-linejoin="round" stroke-width="2" d="M8 16h8m0 0h8m-8 0V8m0 8v8"/>
    </symbol>
  </defs>
</svg>
